<?xml version="1.0" encoding="iso-8859-1"?>
<!-- Generator: Adobe Illustrator 16.0.0, SVG Export Plug-In . SVG Version: 6.00 Build 0)  -->
<!DOCTYPE svg PUBLIC "-//W3C//DTD SVG 1.1//EN" "http://www.w3.org/Graphics/SVG/1.1/DTD/svg11.dtd">
<svg xmlns="http://www.w3.org/2000/svg" xmlns:xlink="http://www.w3.org/1999/xlink" version="1.1" id="Capa_1" x="0px" y="0px" width="512px" height="512px" viewBox="0 0 95.248 95.248" style="enable-background:new 0 0 95.248 95.248;" xml:space="preserve">
<g>
	<g>
		<path d="M91.632,48.542c-3.214,0-6.343,2.258-7.778,5.729c-1.558,3.762-0.278,5.913,2.967,5.913c3.057,0,6.299-2.119,7.854-5.882    C95.884,51.384,95.322,48.542,91.632,48.542z M91.289,54.302c-0.755,1.828-1.891,3.18-3.354,3.18c-1.621,0-1.291-1.766-0.707-3.18    c0.574-1.396,1.724-3.055,3.258-3.055C91.997,51.199,91.912,52.796,91.289,54.302z" fill="#FFDA44"/>
		<polygon points="14.548,48.833 11.345,48.833 11.303,48.833 9.848,52.352 8.963,54.798 7.784,48.833 7.743,48.833 4.614,48.833     4.572,48.833 0,59.893 0.039,59.893 3.242,59.893 3.283,59.893 4.73,56.392 5.618,53.943 6.802,59.893 6.841,59.893 9.973,59.893     10.014,59.893 14.587,48.833   " fill="#FFDA44"/>
		<polygon points="30.238,51.425 30.279,51.425 31.35,48.833 31.309,48.833 15.851,48.833 15.81,48.833 11.236,59.893     11.275,59.893 14.622,59.893 14.664,59.893 16.271,56.007 19.934,56.007 19.973,56.007 21.04,53.428 20.999,53.428 17.339,53.428     18.166,51.425 23.81,51.425 20.307,59.893 20.346,59.893 23.693,59.893 23.734,59.893 27.236,51.425   " fill="#FFDA44"/>
		<path d="M32.93,48.833h-0.039l-8.277,11.06h0.039h3.277h0.039l0.99-1.458h3.333l-0.201,1.458h0.038h3.334h0.041l0.868-11.058    h-0.038H32.93V48.833z M32.655,56.13h-2.097l2.637-3.891L32.655,56.13z" fill="#FFDA44"/>
		<polygon points="42.136,53.949 38.332,53.949 38.29,53.949 37.134,56.744 37.176,56.744 40.979,56.744 41.02,56.744     42.177,53.949   " fill="#FFDA44"/>
		<polygon points="57.71,48.833 53.66,48.833 53.621,48.833 48.999,55.654 50.014,48.833 49.977,48.833 45.926,48.833     45.884,48.833 41.312,59.893 41.353,59.893 44.354,59.893 44.393,59.893 45.944,56.145 46.584,54.425 47.093,52.865     46.047,59.893 46.089,59.893 48.401,59.893 48.439,59.893 53.212,52.865 52.246,54.792 51.491,56.513 50.094,59.893     50.137,59.893 53.137,59.893 53.18,59.893 57.751,48.833   " fill="#FFDA44"/>
		<polygon points="74.548,51.425 75.618,48.833 75.58,48.833 59.02,48.833 58.979,48.833 54.406,59.893 54.445,59.893     63.032,59.893 63.07,59.893 64.139,57.313 64.098,57.313 58.902,57.313 59.618,55.578 63.84,55.578 63.881,55.578 64.949,52.996     64.907,52.996 60.688,52.996 61.333,51.425 68.077,51.425 64.575,59.893 64.617,59.893 67.964,59.893 68.003,59.893     71.505,51.425 74.507,51.425   " fill="#FFDA44"/>
		<path d="M81.502,54.687c1.354-0.354,2.327-1.43,2.855-2.703c0.888-2.15,0.168-3.148-3.275-3.148H81.04h-4.838H76.16l-4.572,11.058    h0.042h3.345h0.041l1.594-3.854h0.992c1.58,0,1.613,0.476,1.017,1.92c-0.407,0.982-0.611,1.688-0.628,1.935h0.037h3.393h0.039    l0.141-0.338c-0.399,0-0.154-0.492,0.443-1.935C82.963,55.392,82.415,55.117,81.502,54.687z M80.945,52.566    c-0.317,0.77-0.989,1.044-2.038,1.044h-1.294l0.906-2.194h1.541C80.85,51.416,81.27,51.783,80.945,52.566z" fill="#FFDA44"/>
		<path d="M52.285,43.033c0.564-0.387,1.126-0.745,1.688-1.08c-1.104-0.399-2.228-0.759-3.377-1.032    c-3.304,1.125-6.327,1.749-9.52,0.426c-1.521,0.541-3.046,1.319-4.587,2.334C41.599,45.498,46.468,47.049,52.285,43.033z" fill="#FFDA44"/>
		<path d="M72.667,38.664c0.304-0.118,0.614-0.235,0.933-0.349c-5.951-1.737-10.732-1.267-14.85-0.173    c0.688,0.284,1.372,0.586,2.055,0.903C65.073,37.906,69.132,38.007,72.667,38.664z" fill="#FFDA44"/>
		<path d="M12.999,46.692c8.417-6.899,14.716-5.943,20.453-4.066c-1.392-2.031-6.93-2.762-11.724-2.762    c-0.334,0-0.528,0.005-0.53,0.005c-0.172,0.006-0.332-0.112-0.38-0.281c-0.047-0.17,0.025-0.35,0.178-0.438    c0.041-0.023,2.086-1.184,5.593-2.336c-15.214-2.187-26.107,4.101-26.107,4.101S16.371,40.53,12.999,46.692z" fill="#FFDA44"/>
		<path d="M33.961,42.299c0.36,0.609,0.438,1.289,0.235,2.032c4.077-3.151,8.039-4.685,12.08-4.685    c3.919,0,7.419,1.404,10.803,2.761c3.217,1.291,6.254,2.509,9.485,2.509c2.4,0,4.668-0.688,6.938-2.103    c3.491-2.177,7.502-3.282,11.93-3.282c2.571,0,4.903,0.383,6.734,0.824c-4.473-1.879-8.343-2.798-11.757-2.798    c-3.644,0-6.276,1.047-8.601,1.972c-1.947,0.772-3.783,1.505-5.896,1.505c0,0,0,0-0.003,0c-1.564,0-3.167-0.405-4.904-1.239    c-6.535-3.14-13.363-4.731-20.293-4.731c-9.25,0-16.169,2.884-18.587,4.05C25.051,39.149,32.315,39.526,33.961,42.299z" fill="#FFDA44"/>
		<path d="M79.318,41.107c1.16,0.484,2.179,0.978,3.014,1.424c0.874,0.5,1.771,1.043,2.688,1.632l0.217-0.314    c-0.038-0.029-1.008-0.73-2.68-1.629c-0.91-0.52-1.793-0.986-2.656-1.412C79.707,40.902,79.514,41.001,79.318,41.107z" fill="#FFDA44"/>
	</g>
</g>
<g>
</g>
<g>
</g>
<g>
</g>
<g>
</g>
<g>
</g>
<g>
</g>
<g>
</g>
<g>
</g>
<g>
</g>
<g>
</g>
<g>
</g>
<g>
</g>
<g>
</g>
<g>
</g>
<g>
</g>
</svg>
